<svg width="32" height="32" viewBox="0 0 32 32" fill="none" xmlns="http://www.w3.org/2000/svg">
<circle cx="16" cy="16" r="11.5" stroke="white"/>
<path d="M16 4.5C17.9899 4.5 19.8531 5.70981 21.2412 7.79199C22.627 9.87067 23.5 12.7713 23.5 16C23.5 19.2287 22.627 22.1293 21.2412 24.208C19.8531 26.2902 17.9899 27.5 16 27.5C14.0101 27.5 12.1469 26.2902 10.7588 24.208C9.37305 22.1293 8.5 19.2287 8.5 16C8.5 12.7713 9.37305 9.87067 10.7588 7.79199C12.1469 5.70981 14.0101 4.5 16 4.5Z" stroke="white"/>
<path d="M16 4.5C16.1283 4.5 16.3937 4.61603 16.7373 5.19727C17.0611 5.74512 17.3706 6.57119 17.6367 7.63574C18.1671 9.75726 18.5 12.7149 18.5 16C18.5 19.2851 18.1671 22.2427 17.6367 24.3643C17.3706 25.4288 17.0611 26.2549 16.7373 26.8027C16.3937 27.384 16.1283 27.5 16 27.5C15.8717 27.5 15.6063 27.384 15.2627 26.8027C14.9389 26.2549 14.6294 25.4288 14.3633 24.3643C13.8329 22.2427 13.5 19.2851 13.5 16C13.5 12.7149 13.8329 9.75726 14.3633 7.63574C14.6294 6.57119 14.9389 5.74512 15.2627 5.19727C15.6063 4.61603 15.8717 4.5 16 4.5Z" stroke="white"/>
</svg>
