<svg width="20" height="20" viewBox="0 0 20 20" fill="none" xmlns="http://www.w3.org/2000/svg">
<path d="M15.4688 5V13.125C15.4688 13.2493 15.4194 13.3685 15.3315 13.4565C15.2436 13.5444 15.1243 13.5938 15 13.5938C14.8757 13.5938 14.7565 13.5444 14.6686 13.4565C14.5807 13.3685 14.5313 13.2493 14.5313 13.125V6.13125L5.33128 15.3313C5.24242 15.4141 5.12489 15.4591 5.00345 15.457C4.88201 15.4548 4.76615 15.4056 4.68026 15.3198C4.59438 15.2339 4.54518 15.118 4.54304 14.9966C4.5409 14.8751 4.58598 14.7576 4.66878 14.6687L13.8688 5.46875H6.87503C6.75071 5.46875 6.63148 5.41936 6.54357 5.33146C6.45566 5.24355 6.40628 5.12432 6.40628 5C6.40628 4.87568 6.45566 4.75645 6.54357 4.66854C6.63148 4.58064 6.75071 4.53125 6.87503 4.53125H15C15.1243 4.53125 15.2436 4.58064 15.3315 4.66854C15.4194 4.75645 15.4688 4.87568 15.4688 5Z" fill="white"/>
</svg>
