<svg width="24" height="24" viewBox="0 0 24 24" fill="none" xmlns="http://www.w3.org/2000/svg">
<path d="M16.0869 16.9932H14.2734L7.91406 6.99902H9.72559L16.0869 16.9932Z" fill="white"/>
<path fill-rule="evenodd" clip-rule="evenodd" d="M20.25 2.25C20.6478 2.25 21.0292 2.40815 21.3105 2.68945C21.5919 2.97076 21.75 3.35218 21.75 3.75V20.25C21.75 20.6478 21.5919 21.0292 21.3105 21.3105C21.0292 21.5919 20.6478 21.75 20.25 21.75H3.75C3.35218 21.75 2.97076 21.5919 2.68945 21.3105C2.40815 21.0292 2.25 20.6478 2.25 20.25V3.75C2.25 3.35218 2.40815 2.97076 2.68945 2.68945C2.97076 2.40815 3.35218 2.25 3.75 2.25H20.25ZM7.00391 6C6.91435 5.99996 6.82611 6.02376 6.74902 6.06934C6.67191 6.11495 6.60853 6.18122 6.56543 6.25977C6.52253 6.33809 6.50106 6.42637 6.50391 6.51562C6.50684 6.60517 6.53387 6.693 6.58203 6.76855L10.4922 12.9121L6.63379 17.1602C6.58886 17.2085 6.55413 17.2653 6.53125 17.3271C6.50833 17.3892 6.49724 17.4554 6.5 17.5215C6.50279 17.5874 6.51894 17.6521 6.54688 17.7119C6.57489 17.7718 6.61513 17.8256 6.66406 17.8701C6.71289 17.9144 6.76992 17.9486 6.83203 17.9707C6.89428 17.9929 6.96039 18.0026 7.02637 17.999C7.0924 17.9955 7.15724 17.9789 7.2168 17.9502C7.27621 17.9215 7.32923 17.8813 7.37305 17.832L11.0488 13.7891L13.5781 17.7637C13.6236 17.834 13.6861 17.8917 13.7598 17.9316C13.8333 17.9715 13.9154 17.9924 13.999 17.9922H16.9971C17.0866 17.9922 17.1749 17.9684 17.252 17.9229C17.3289 17.8773 17.3925 17.8118 17.4355 17.7334C17.4786 17.655 17.4999 17.566 17.4971 17.4766C17.4942 17.3872 17.4669 17.3001 17.4189 17.2246L13.5088 11.0801L17.3672 6.83594C17.4544 6.73764 17.4992 6.60875 17.4922 6.47754C17.4851 6.34625 17.4264 6.2232 17.3291 6.13477C17.2318 6.04636 17.104 5.99943 16.9727 6.00488C16.8413 6.01037 16.7175 6.06782 16.6279 6.16406L12.9521 10.2061L10.4238 6.23145C10.3787 6.16047 10.3159 6.10203 10.2422 6.06152C10.1686 6.02112 10.0859 6.00005 10.002 6H7.00391Z" fill="white"/>
</svg>
